<?xml version="1.0" standalone="no"?>
<!DOCTYPE svg PUBLIC "-//W3C//DTD SVG 20010904//EN"
 "http://www.w3.org/TR/2001/REC-SVG-20010904/DTD/svg10.dtd">
<svg version="1.0" xmlns="http://www.w3.org/2000/svg"
 width="200.000000pt" height="200.000000pt" viewBox="0 0 200.000000 200.000000"
 preserveAspectRatio="xMidYMid meet">

<g transform="translate(0.000000,200.000000) scale(0.100000,-0.100000)"
fill="#000000" stroke="none">
<path d="M520 750 l0 -140 59 0 c62 0 110 13 123 33 15 23 8 74 -12 92 -18 17
-19 20 -4 36 10 11 14 31 12 55 -4 49 -31 64 -115 64 l-63 0 0 -140z m118 56
c2 -10 -2 -22 -10 -27 -25 -17 -38 -9 -38 22 0 26 3 30 22 27 13 -2 24 -11 26
-22z m-3 -106 c0 -18 -6 -26 -22 -28 -20 -3 -23 1 -23 28 0 27 3 31 23 28 16
-2 22 -10 22 -28z"/>
<path d="M750 865 c0 -22 4 -25 35 -25 31 0 35 3 35 25 0 22 -4 25 -35 25 -31
0 -35 -3 -35 -25z"/>
<path d="M872 753 l3 -138 79 1 c70 0 81 3 97 23 26 31 24 67 -4 95 -23 23
-23 24 -5 46 25 30 23 56 -7 85 -21 22 -33 25 -95 25 l-71 0 3 -137z m113 47
c0 -18 -6 -26 -22 -28 -20 -3 -23 1 -23 28 0 27 3 31 23 28 16 -2 22 -10 22
-28z m0 -100 c0 -18 -6 -26 -22 -28 -20 -3 -23 1 -23 28 0 27 3 31 23 28 16
-2 22 -10 22 -28z"/>
<path d="M1110 865 c0 -21 5 -25 30 -25 25 0 30 4 30 25 0 21 -5 25 -30 25
-25 0 -30 -4 -30 -25z"/>
<path d="M1241 881 c-20 -13 -5 -93 17 -89 13 2 17 14 17 47 0 45 -10 57 -34
42z"/>
<path d="M750 710 l0 -100 35 0 35 0 0 100 0 100 -35 0 -35 0 0 -100z"/>
<path d="M1110 710 l0 -100 30 0 30 0 0 100 0 100 -30 0 -30 0 0 -100z"/>
<path d="M1360 790 c-11 -11 -20 -26 -20 -34 0 -20 37 -64 60 -71 36 -12 22
-28 -19 -22 -27 3 -41 1 -44 -7 -10 -26 12 -40 64 -41 44 0 54 4 71 26 26 34
17 62 -28 88 -38 23 -37 46 2 37 17 -5 26 -2 31 10 14 37 -82 49 -117 14z"/>
<path d="M520 355 l0 -135 80 0 c67 0 83 3 100 20 26 26 25 68 -1 96 -20 21
-20 24 -5 46 22 30 20 64 -4 88 -16 16 -33 20 -95 20 l-75 0 0 -135z m104 79
c34 -13 14 -64 -25 -64 -5 0 -9 16 -9 35 0 35 5 40 34 29z m14 -131 c-2 -20
-9 -29 -25 -31 -20 -3 -23 1 -23 27 0 27 4 31 26 31 22 0 25 -4 22 -27z"/>
<path d="M1200 430 c0 -11 -7 -20 -15 -20 -9 0 -15 -9 -15 -25 0 -15 6 -25 15
-25 11 0 15 -17 17 -72 3 -71 4 -73 31 -76 l27 -3 0 75 c0 69 2 76 20 76 15 0
20 7 20 25 0 18 -5 25 -20 25 -13 0 -20 7 -20 20 0 16 -7 20 -30 20 -23 0 -30
-4 -30 -20z"/>
<path d="M781 391 c-47 -47 -31 -150 25 -171 42 -16 64 -12 96 20 28 28 30 35
26 82 -4 38 -12 57 -28 70 -30 24 -94 24 -119 -1z m82 -53 c13 -20 0 -68 -18
-68 -24 0 -39 43 -25 69 12 24 28 24 43 -1z"/>
<path d="M991 391 c-67 -67 -9 -198 79 -176 52 13 81 70 66 130 -16 62 -102
89 -145 46z m82 -53 c14 -22 0 -70 -20 -66 -27 5 -38 33 -25 63 13 28 29 29
45 3z"/>
<path d="M1351 386 c-48 -51 -33 -140 29 -166 37 -16 93 -3 98 23 3 14 -4 17
-42 17 -34 0 -46 4 -46 15 0 10 10 15 34 15 40 0 66 22 66 56 0 61 -94 88
-139 40z m79 -46 c0 -13 -7 -20 -20 -20 -13 0 -20 7 -20 20 0 13 7 20 20 20
13 0 20 -7 20 -20z"/>
</g>
</svg>
